<svg xmlns="http://www.w3.org/2000/svg" width="46.722" height="90.862" viewBox="0 0 46.722 90.862">
  <path id="パス_5" data-name="パス 5" d="M0,31.946V46.618L10.653,52.77V77.378L34.014,90.862,46.72,83.527V7.336L34.014,0,10.652,13.487v12.3ZM42.62,9.707V15.5l-1.538.888-5.015-2.9-2.051,1.185v2.367l8.6,4.969V44.247l-8.6,4.968L29,46.315V44.543l7.066-4.08V25.791L18.344,15.559V13.783L34.016,4.735ZM22.846,79.681,14.755,75.01V56.91l1.538-.888L23.36,60.1l2.054-1.179v-8.16l1.538-.888,5.016,2.9v9.936l-8.6,4.968v2.368l2.046,1.176,10.655-6.152v-12.3l5.016-2.9,1.538.888v30.4l-8.6,4.968L29,83.227V81.452l5.022-2.916V76.189l-2.051-1.2L23.882,79.68ZM4.1,34.315l8.6-4.968,8.6,4.969,2.051-1.184V30.765L14.75,25.8V20l1.538-.888L31.96,28.164V38.1l-8.6,4.968L14.76,38.1l-2.051,1.184v2.367l8.6,4.968v5.793l-1.538.888-5.016-2.9h0l-.7-.4-.329-.19h0L4.1,44.25Z" transform="translate(0.002)" fill="#fff"/>
</svg>
