<?xml version="1.0" encoding="utf-8"?>
<!-- Generator: Adobe Illustrator 25.4.1, SVG Export Plug-In . SVG Version: 6.00 Build 0)  -->
<svg version="1.1" id="レイヤー_1" xmlns="http://www.w3.org/2000/svg" xmlns:xlink="http://www.w3.org/1999/xlink" x="0px"
	 y="0px" viewBox="0 0 100 90.9" style="enable-background:new 0 0 100 90.9;" xml:space="preserve">
<style type="text/css">
	.st0{fill:#E8E8E8;}
</style>
<path id="パス_1" class="st0" d="M89.3,25.8V13.5L66,0L53.3,7.3v76.2L66,90.9l23.4-13.5V52.8l10.7-6.2V31.9L89.3,25.8z M66,4.7
	l15.7,9v1.8L63.9,25.8v14.7l7.1,4.1v1.8l-5,2.9l-8.6-5V22l8.6-5v-2.4l-2.1-1.2l-5,2.9l-1.5-0.9V9.7L66,4.7z M76.1,79.7L68,75
	L66,76.2v2.3l5,2.9v1.8l-5,2.9l-8.6-5V50.8l1.5-0.9l5,2.9v12.3l10.7,6.2l2.1-1.2v-2.4l-8.6-5v-9.9l5-2.9l1.5,0.9v8.2l2.1,1.2
	l7.1-4.1l1.5,0.9V75l-8.1,4.7L76.1,79.7z M95.9,44.2l-9.6,5.6l0,0L85.9,50l-0.7,0.4l0,0l-5,2.9l-1.5-0.9v-5.8l8.6-5v-2.4l-2.1-1.2
	l-8.6,5l-8.6-5v-9.9l15.7-9l1.5,0.9v5.8l-8.6,5v2.4l2.1,1.2l8.6-5l8.6,5L95.9,44.2z M0,31.9v14.7l10.7,6.2v24.6L34,90.9l12.7-7.3
	V7.3L34,0L10.7,13.5v12.3L0,31.9z M42.6,9.7v5.8l-1.5,0.9l-5-2.9L34,14.7V17l8.6,5v22.2l-8.6,5l-5-2.9v-1.8l7.1-4.1V25.8L18.3,15.6
	v-1.8l15.7-9L42.6,9.7z M22.8,79.7L14.8,75V56.9l1.5-0.9l7.1,4.1l2.1-1.2v-8.2l1.5-0.9l5,2.9v9.9l-8.6,5V70l2,1.2l10.7-6.2V52.8
	l5-2.9l1.5,0.9v30.4l-8.6,5l-5-2.9v-1.8l5-2.9v-2.3L32,75l-8.1,4.7L22.8,79.7z M4.1,34.3l8.6-5l8.6,5l2.1-1.2v-2.4l-8.6-5V20
	l1.5-0.9l15.7,9v9.9l-8.6,5l-8.6-5l-2.1,1.2v2.4l8.6,5v5.8l-1.5,0.9l-5-2.9l0,0L14.1,50l-0.3-0.2l0,0l-9.6-5.6L4.1,34.3z"/>
</svg>
