<svg xmlns="http://www.w3.org/2000/svg" width="46.723" height="90.854" viewBox="0 0 46.723 90.854">
  <path id="パス_4" data-name="パス 4" d="M89.345,25.791v-12.3L65.983,0,53.277,7.34V83.523l12.706,7.335L89.345,77.371v-24.6L100,46.615V31.943ZM65.983,4.735l15.672,9.048v1.776L63.933,25.791V40.463L71,44.543v1.78l-5.016,2.9-8.6-4.968V22.007l8.6-4.969V14.671l-2.051-1.185-5.018,2.9-1.538-.888V9.7ZM76.125,79.676l-8.092-4.691-2.051,1.2v2.347L71,81.448v1.775l-5.02,2.9-8.6-4.968v-30.4l1.538-.888,5.016,2.9v12.3l10.655,6.152,2.051-1.184V67.667l-8.6-4.968V52.763l5.016-2.9,1.538.888v8.16L76.649,60.1l7.067-4.08,1.538.888V75l-8.091,4.671ZM95.9,44.246l-9.63,5.56h0l-.329.19-.7.4h0l-5.016,2.9-1.538-.888V46.615l8.6-4.968V39.28L85.234,38.1l-8.6,4.968-8.6-4.968V28.16l15.672-9.048L85.244,20v5.792l-8.6,4.969v2.362l2.051,1.184,8.6-4.969,8.6,4.968Z" transform="translate(-53.277 -0.004)" fill="#fff"/>
</svg>
