<svg xmlns="http://www.w3.org/2000/svg" width="100" height="90.862" viewBox="0 0 100 90.862">
  <path id="パス_1" data-name="パス 1" d="M650.431,377.768v-12.3l-23.362-13.487-12.706,7.336V435.5l12.706,7.335,23.362-13.487V404.744l10.655-6.152V383.92Zm-23.362-21.056,15.672,9.048v1.776l-17.722,10.232V392.44l7.066,4.08V398.3l-5.016,2.9-8.6-4.968V373.984l8.6-4.969v-2.367l-2.051-1.185L620,368.36l-1.538-.888v-5.792Zm10.142,74.941-8.092-4.691-2.051,1.2v2.347l5.022,2.916,0,1.775-5.02,2.9-8.6-4.968v-30.4l1.538-.888,5.016,2.9v12.3l10.655,6.152,2.051-1.184v-2.368l-8.6-4.968v-9.936l5.016-2.9,1.538.888v8.16l2.051,1.184,7.067-4.08,1.538.888v18.1l-8.091,4.671Zm19.773-35.43-9.63,5.56h0l-.329.19-.7.4h0l-5.016,2.9-1.538-.888v-5.793l8.6-4.968v-2.367l-2.051-1.184-8.6,4.968-8.6-4.968v-9.936l15.672-9.048,1.538.888v5.792l-8.6,4.969V385.1l2.051,1.184,8.6-4.969,8.6,4.968Zm-95.9-12.3v14.672l10.655,6.152v24.608L595.1,442.839l12.706-7.335V359.313L595.1,351.977l-23.362,13.487v12.3Zm42.622-22.239v5.792l-1.538.888-5.015-2.9-2.051,1.185v2.367l8.6,4.969v22.239l-8.6,4.968-5.016-2.9V396.52l7.066-4.08V377.768l-17.722-10.232V365.76l15.672-9.048Zm-19.774,69.974-8.091-4.671v-18.1l1.538-.888,7.067,4.08L586.5,410.9v-8.16l1.538-.888,5.016,2.9v9.936l-8.6,4.968v2.368L586.5,423.2l10.655-6.152v-12.3l5.016-2.9,1.538.888v30.4l-8.6,4.968-5.02-2.9,0-1.775,5.022-2.916v-2.347l-2.051-1.2-8.092,4.691Zm-18.747-45.366,8.6-4.968,8.6,4.969,2.051-1.184v-2.367l-8.6-4.969v-5.792l1.538-.888,15.672,9.048v9.936l-8.6,4.968-8.6-4.968-2.051,1.184v2.367l8.6,4.968v5.793l-1.538.888-5.016-2.9h0l-.7-.4-.329-.19h0l-9.63-5.56Z" transform="translate(-561.086 -351.977)" fill="#fff"/>
</svg>
