<svg xmlns="http://www.w3.org/2000/svg" viewBox="0 0 133.01 63.6"><defs><style>.cls-1{fill:#e8e8e8;}.cls-2{isolation:isolate;}.cls-3{fill:#040000;}</style></defs><g id="レイヤー_2" data-name="レイヤー 2"><g id="レイヤー_1-2" data-name="レイヤー 1"><g id="グループ_44" data-name="グループ 44"><path id="パス_1" data-name="パス 1" class="cls-1" d="M62.54,18.05V9.44L46.19,0l-8.9,5.14V58.47l8.9,5.13,16.35-9.44V36.94L70,32.63V22.36ZM46.19,3.32l11,6.33v1.24L44.75,18.05V28.32l5,2.86v1.24l-3.51,2-6-3.48V15.4l6-3.47V10.27l-1.44-.83-3.51,2-1.08-.62V6.79Zm7.1,52.45-5.67-3.28-1.43.84V55l3.51,2v1.24l-3.51,2-6-3.48V35.53l1.07-.62,3.52,2v8.62l7.45,4.3L53.65,49V47.37l-6-3.48v-7l3.51-2,1.08.62v5.71l1.43.83,5-2.86,1.07.63V52.5L54,55.77ZM67.13,31l-6.74,3.9h0l-.23.13-.49.28h0l-3.51,2-1.08-.63v-4l6-3.48V27.49l-1.44-.82-6,3.47-6-3.47v-7l11-6.33,1.08.62v4.05l-6,3.48v1.66l1.43.83,6-3.48,6,3.48ZM0,22.36V32.63l7.46,4.31V54.16L23.81,63.6l8.9-5.13V5.14L23.81,0,7.46,9.44v8.61ZM29.84,6.79v4.06l-1.08.62-3.51-2-1.44.83v1.65l6,3.48V31l-6,3.48-3.51-2V31.18l4.95-2.85V18.06L12.84,10.89V9.65l11-6.33ZM16,55.77,10.33,52.5V39.84l1.08-.63,4.94,2.86,1.44-.83V35.53l1.08-.62,3.51,2v7l-6,3.48V49l1.44.83,7.46-4.3V36.93l3.51-2,1.08.62V56.81l-6,3.48-3.51-2V57L23.82,55V53.33l-1.44-.84-5.66,3.28ZM2.87,24l6-3.48,6,3.48,1.44-.83V21.54l-6-3.48V14l1.07-.62,11,6.34v7l-6,3.48-6-3.48-1.44.83v1.66l6,3.47v4l-1.07.63-3.51-2h0L9.84,35l-.23-.13h0L2.87,31Z"/><g id="CRANIUM" class="cls-2"><g class="cls-2"><path class="cls-3" d="M6.8,41.81a30.33,30.33,0,0,1,.25-3.4c.17-1.43.43-3,.78-4.61s.79-3.3,1.31-5A26.33,26.33,0,0,1,11,24.27,12.21,12.21,0,0,1,13.46,21a4.38,4.38,0,0,1,3.06-1.29,3.64,3.64,0,0,1,1.66.35,3.33,3.33,0,0,1,1.14,1A4.25,4.25,0,0,1,20,22.34,6.24,6.24,0,0,1,20.19,24a1.73,1.73,0,0,1-1.13-.37,7.34,7.34,0,0,1-.78-.8,9.44,9.44,0,0,0-.72-.81,1.38,1.38,0,0,0-1-.37,3,3,0,0,0-2.3,1.2,12.56,12.56,0,0,0-1.92,3A29.73,29.73,0,0,0,10.82,30q-.66,2.25-1.11,4.38T9,38.2a22.5,22.5,0,0,0-.23,2.59A19.78,19.78,0,0,0,8.91,43a6,6,0,0,0,.5,1.93,3.31,3.31,0,0,0,1.14,1.39,3.59,3.59,0,0,0,2.11.53,5.58,5.58,0,0,0,3.1-1,14.48,14.48,0,0,0,2.87-2.48,18.24,18.24,0,0,0,2.31-3.12,16.28,16.28,0,0,0,1.4-2.91,1,1,0,0,1,.35-.06l.36,0a3.6,3.6,0,0,1,.88.1c.27.06.41.3.41.72a8,8,0,0,1-1.1,2.64,19.93,19.93,0,0,1-2,2.71,20,20,0,0,1-2.58,2.46,22.94,22.94,0,0,1-2.73,1.92,9.72,9.72,0,0,1-2.46,1.07,2.57,2.57,0,0,1-1.84-.06,3.49,3.49,0,0,1-2.21-.72A5.58,5.58,0,0,1,7.91,46.3,8.76,8.76,0,0,1,7.07,44,10.32,10.32,0,0,1,6.8,41.81Z"/><path class="cls-3" d="M26.87,17.08l.28,0a3.58,3.58,0,0,0,.51.06,4.35,4.35,0,0,1,.52.06l.3,0a4.17,4.17,0,0,1,.58.06.41.41,0,0,1,.39.45v3.43A4.8,4.8,0,0,0,31,20.5a19.09,19.09,0,0,1,2-1.15,14,14,0,0,1,2.61-1,9.14,9.14,0,0,1,3.32-.19,13.41,13.41,0,0,1,4.18,1.38,2.46,2.46,0,0,1,1.37,1.76,2.94,2.94,0,0,1-.8,2.05,14.74,14.74,0,0,1-2.32,2.25,36.37,36.37,0,0,1-3.23,2.28l-3.47,2.21c-1.14.72-2.17,1.39-3.11,2a13.06,13.06,0,0,0-2.11,1.68c.42.18,1,.48,1.82.88L33.89,36c1,.48,1.94,1,3,1.54s2,1.05,2.91,1.51l2.46,1.21a14.14,14.14,0,0,0,1.56.68l.74.35c.18.13.36.25.53.35s.25.21.25.32a1.33,1.33,0,0,1-.1.43,1.49,1.49,0,0,1-.29.5,2.65,2.65,0,0,1-.41.41.65.65,0,0,1-.41.18l-.17,0-.14,0-.53-.25-.94-.49c-.32-.18-.63-.35-.93-.49a5.46,5.46,0,0,0-.57-.25c-.29-.11-.75-.31-1.39-.61l-2.15-1c-.79-.38-1.63-.79-2.51-1.24l-2.52-1.25c-.8-.39-1.52-.72-2.15-1a6.69,6.69,0,0,0-1.39-.51V48.29H27Zm2.58,6.72c-.05.47-.1,1-.15,1.64s-.11,1.28-.18,2-.12,1.35-.16,2-.05,1.3-.05,1.87A4.05,4.05,0,0,1,30,30.64l2.27-1.17c.88-.47,1.84-1,2.87-1.57s2-1.16,2.91-1.77a24.17,24.17,0,0,0,2.4-1.82,4.61,4.61,0,0,0,1.33-1.66,1.23,1.23,0,0,0-.32-1.39,4.9,4.9,0,0,0-2.52-1,10.64,10.64,0,0,0-2.4.11,14.7,14.7,0,0,0-2.69.67,14.47,14.47,0,0,0-2.52,1.15A6.6,6.6,0,0,0,29.45,23.8Z"/><path class="cls-3" d="M46.48,47.79a11.59,11.59,0,0,0,.2-1.41c0-.57.12-1.33.21-2.27s.2-2.09.32-3.47.28-3.06.48-5,.45-4.3.73-7,.63-5.78,1.07-9.32a.48.48,0,0,1,.37-.47,2.84,2.84,0,0,1,.61-.08.89.89,0,0,1,.7.32,3.63,3.63,0,0,1,.49.7c.14.26.28.53.41.82a2.71,2.71,0,0,0,.43.7c.26.6.53,1.29.8,2.07s.57,1.62.88,2.5.62,1.78.94,2.68.62,1.77.93,2.62.61,1.62.88,2.34.53,1.31.76,1.78A5.26,5.26,0,0,0,58.91,35c.52-.19,1.08-.38,1.68-.56A14.86,14.86,0,0,1,62.34,34a3.55,3.55,0,0,1,1.45,0,1,1,0,0,1,.76.68,2.8,2.8,0,0,1-.29,1.72,1.22,1.22,0,0,1-.51-.1l-.47-.19-.49-.2a1.69,1.69,0,0,0-.56-.09,4.06,4.06,0,0,0-.88.21l-1.47.47c-.52.17-1,.34-1.36.51s-.59.29-.59.37L60.62,47.9l-1,1.49a11.9,11.9,0,0,1-1.11-2.6c-.3-1-.58-1.95-.84-2.93s-.53-1.89-.8-2.73a7.55,7.55,0,0,0-1-2.13,10.09,10.09,0,0,1-2,.66,15.52,15.52,0,0,0-2.19.69,5.8,5.8,0,0,0-1.82,1.09,3,3,0,0,0-.92,1.85c0,.32-.09.73-.13,1.25s-.09,1-.14,1.49-.14,1.16-.19,1.76Zm4.5-23-.08.66c0,.45-.07,1-.12,1.55s-.11,1.18-.17,1.79-.12,1.13-.14,1.55c-.13,1.45-.27,2.89-.41,4.31A41.45,41.45,0,0,0,49.84,39a7.13,7.13,0,0,0,1.59-.2,9.58,9.58,0,0,0,1.62-.53,6.42,6.42,0,0,0,1.42-.82,3.61,3.61,0,0,0,1-1.11c-.21-.91-.44-1.85-.69-2.83s-.51-2-.8-3-.6-2-.93-2.95-.71-1.9-1.1-2.81a1.12,1.12,0,0,0-.27-.18C51.52,24.51,51.29,24.57,51,24.78Z"/><path class="cls-3" d="M62.3,24.78V22.9a2.28,2.28,0,0,1,1.06.32,7.31,7.31,0,0,1,1.13.74,7.69,7.69,0,0,1,1,1c.31.35.56.64.74.87L77.77,41.3c.08-.44.15-1.26.22-2.46s.09-2.56.08-4.08S78,31.64,78,30s-.16-3.22-.27-4.66-.25-2.67-.4-3.68a3.5,3.5,0,0,0-.56-1.81,2.87,2.87,0,0,1,.21-1.1.84.84,0,0,1,.84-.5,1.15,1.15,0,0,1,1,.7,5.93,5.93,0,0,1,.58,1.58c.13.59.23,1.16.3,1.72s.1.93.1,1.11c0,.47,0,1.18.07,2.13s.06,2,.08,3.24.06,2.5.1,3.85.08,2.63.12,3.83.06,2.29.07,3.26,0,1.7.06,2.17a2.42,2.42,0,0,0,.18.94c.12.28.23.57.35.86s.23.57.33.86a2.42,2.42,0,0,1,.16.89,1.28,1.28,0,0,1-.57,1.16,2.25,2.25,0,0,1-1.27.37,2,2,0,0,1-.68-.1.87.87,0,0,1-.47-.35,1.16,1.16,0,0,1-.19-.65,3.47,3.47,0,0,1,.13-1c-.29-.34-.73-.89-1.33-1.66l-2-2.58c-.74-.95-1.53-1.95-2.36-3s-1.63-2-2.38-3l-2-2.55L66.8,30.33a3,3,0,0,0-.28-.32l-.93-.93a2.83,2.83,0,0,0-.32-.28,30.06,30.06,0,0,0,0,4.55c.13,1.53.31,3,.53,4.55l.66,4.52a30.91,30.91,0,0,1,.34,4.51A4.66,4.66,0,0,1,66.72,48c-.08.33-.39.58-.94.76a1.63,1.63,0,0,1-1-1,1.87,1.87,0,0,1,0-1.47Z"/><path class="cls-3" d="M84.77,19.62a.51.51,0,0,1,.21-.45,1,1,0,0,1,.51-.15,2.62,2.62,0,0,1,.62,0c.22,0,.41,0,.57,0A7.62,7.62,0,0,1,87,20.93q.13,1.39.27,3.36c.1,1.32.16,2.77.2,4.36s.08,3.19.12,4.82.06,3.22.08,4.79,0,3,0,4.27,0,2.39,0,3.3v1.76c0,.52-.13.83-.33.92a2.5,2.5,0,0,1-1.35-.18c-.07,0-.14-.41-.19-1.17s-.09-1.75-.12-3,0-2.65-.08-4.25,0-3.25-.07-5-.06-3.38-.1-5.07-.09-3.24-.14-4.63-.12-2.59-.21-3.6A8.58,8.58,0,0,0,84.77,19.62Z"/><path class="cls-3" d="M103.09,38.33c-.26,1-.61,2-1,3.19a17.62,17.62,0,0,1-1.6,3.26,9.91,9.91,0,0,1-2.29,2.56,4.85,4.85,0,0,1-3.08,1,4,4,0,0,1-2.21-.56,3.83,3.83,0,0,1-1.31-1.53,8.16,8.16,0,0,1-.68-2.11,17.93,17.93,0,0,1-.29-2.32c0-.26-.06-.79-.08-1.58s-.06-1.73-.08-2.82-.06-2.23-.1-3.45-.08-2.37-.12-3.44-.07-2-.09-2.81,0-1.34,0-1.6a1.27,1.27,0,0,1,0-.61.52.52,0,0,1,.27-.31,1.07,1.07,0,0,1,.45-.12l.45,0h.31a1.91,1.91,0,0,1,.43,0,.78.78,0,0,1,.35.18.44.44,0,0,1,.16.37V42.32a4.8,4.8,0,0,0,.21,1.4A5.41,5.41,0,0,0,93.36,45a3.34,3.34,0,0,0,1,1,2.33,2.33,0,0,0,1.32.39,3.5,3.5,0,0,0,2.56-1.58,14.12,14.12,0,0,0,1.86-3.69,34.88,34.88,0,0,0,1.29-4.85c.34-1.74.63-3.42.9-5s.48-3,.68-4.29a10.65,10.65,0,0,1,.64-2.62c.5-.44.89-.55,1.18-.33a2,2,0,0,1,.64,1,5.8,5.8,0,0,1,.25,1.49,3.66,3.66,0,0,1-.07,1.15c0,1.74-.09,3.48-.26,5.19s-.25,3.47-.25,5.24q0,1.68.15,3.36t.36,3.36c.13,1.12.24,2.23.35,3.34s.15,2.2.15,3.3a4.68,4.68,0,0,1,0,.64,1.72,1.72,0,0,1-.17.61,1.54,1.54,0,0,1-.37.47,1,1,0,0,1-.67.19l-.27,0Z"/><path class="cls-3" d="M128.05,22.83c-.11-.06-.26.24-.45.87l-.76,2.47c-.32,1-.65,2.13-1,3.39s-.74,2.52-1.15,3.77-.84,2.42-1.25,3.5a14.23,14.23,0,0,1-1.25,2.56c-.42.62-.81,1-1.17,1s-.69-.3-1-1.11c-.21-.36-.5-.94-.88-1.74s-.81-1.68-1.31-2.67-1-2-1.56-3.13-1.06-2.13-1.54-3.1-.93-1.86-1.33-2.64-.7-1.35-.88-1.72a14,14,0,0,0-.84-1.39,1.31,1.31,0,0,0-1.15-.52q0,2.73.31,6c.21,2.19.43,4.4.68,6.64s.48,4.45.69,6.62.31,4.19.31,6a.6.6,0,0,1-.1.66,1.48,1.48,0,0,1-.7.47,1.71,1.71,0,0,1-1,0,1.53,1.53,0,0,1-.88-.64c-.23-2.32-.36-4.68-.37-7.09s0-4.83-.06-7.25-.13-4.85-.31-7.28a50.51,50.51,0,0,0-1.09-7.29c0-.47,0-.76.23-.88a1.25,1.25,0,0,1,.7-.17,3.34,3.34,0,0,1,1.7.44,6,6,0,0,1,1.39,1.14,8.32,8.32,0,0,1,1.11,1.5l.88,1.49c.21.33.5.87.86,1.6L116.17,27c.47.93,1,1.92,1.47,3s1,2,1.46,2.93.9,1.74,1.29,2.46.69,1.23.9,1.54a.37.37,0,0,0,.27-.12,2.35,2.35,0,0,0,.33-.66c.15-.37.34-.93.59-1.68s.59-1.8,1-3.13,1-3,1.64-5,1.44-4.5,2.38-7.42c0-.13.22-.24.51-.35a2.36,2.36,0,0,1,.78-.16.53.53,0,0,1,.49.24,2.28,2.28,0,0,1,.21.78c.24,2.21.42,4.53.57,6.93s.33,4.85.56,7.31.53,4.9.88,7.32A51.9,51.9,0,0,0,133,47.79l-2.7,1.05Z"/></g></g></g></g></g></svg>