<svg xmlns="http://www.w3.org/2000/svg" width="135" height="65.802" viewBox="0 0 135 65.802">
  <g id="グループ_44" data-name="グループ 44" transform="translate(-97 -90.198)">
    <path id="パス_1" data-name="パス 1" d="M623.627,370.031v-8.613l-16.353-9.441-8.894,5.135v53.333l8.894,5.135,16.353-9.441V388.914l7.459-4.306v-10.27Zm-16.353-14.739,10.97,6.334v1.243l-12.406,7.162V380.3l4.946,2.856V384.4l-3.511,2.027-6.023-3.478V367.382l6.023-3.478v-1.657l-1.436-.829-3.511,2.027-1.077-.622v-4.054Zm7.1,52.459-5.664-3.284-1.436.843v1.643l3.516,2.041,0,1.242-3.514,2.029-6.023-3.478v-21.28l1.077-.622,3.511,2.027v8.613l7.459,4.306,1.436-.829v-1.657l-6.023-3.478v-6.955l3.511-2.027,1.077.622v5.712l1.435.829,4.947-2.856,1.077.622v12.667l-5.664,3.27Zm13.841-24.8-6.741,3.892h0l-.23.133-.487.281h0l-3.511,2.027-1.077-.622v-4.055l6.023-3.478v-1.657l-1.436-.829-6.023,3.478-6.023-3.477v-6.955l10.97-6.334,1.077.622v4.055l-6.023,3.478v1.657l1.436.829,6.023-3.478,6.023,3.478Zm-67.129-8.613v10.27l7.459,4.306v17.225L584.9,415.58l8.894-5.135V357.112l-8.894-5.135-16.353,9.441v8.613Zm29.835-15.568v4.054l-1.077.622-3.511-2.027-1.436.829V363.9l6.023,3.478V382.95l-6.023,3.478-3.511-2.027v-1.243l4.946-2.856v-10.27l-12.406-7.162v-1.243l10.97-6.334ZM577.08,407.751l-5.664-3.27V391.814l1.077-.622,4.947,2.856,1.435-.829v-5.712l1.076-.622,3.511,2.027v6.955l-6.023,3.478V401l1.436.829,7.459-4.306v-8.613l3.511-2.027,1.077.622v21.28l-6.023,3.478-3.514-2.029v-1.242l3.516-2.041V405.31l-1.435-.843-5.664,3.284Zm-13.123-31.757,6.023-3.478L576,376l1.436-.829v-1.657l-6.023-3.478v-4.055l1.077-.622,10.97,6.334v6.955l-6.023,3.477-6.023-3.478-1.436.829v1.657L576,384.607v4.055l-1.077.622-3.511-2.027h0l-.487-.281-.23-.133h0l-6.741-3.892Z" transform="translate(-464.086 -261.779)" fill="#e8e8e8"/>
    <text id="CRANIUM" transform="translate(167 139)" font-size="40" font-family="ShadowsIntoLight, Shadows Into Light"><tspan x="-64.18" y="0">CRANIUM</tspan></text>
  </g>
</svg>
